<?xml version="1.0" encoding="UTF-8" standalone="no"?>
<svg
   xmlns:dc="http://purl.org/dc/elements/1.1/"
   xmlns:cc="http://creativecommons.org/ns#"
   xmlns:rdf="http://www.w3.org/1999/02/22-rdf-syntax-ns#"
   xmlns:svg="http://www.w3.org/2000/svg"
   xmlns="http://www.w3.org/2000/svg"
   version="1.1"
   id="svg2"
   viewBox="0 0 480.1247 495.95692"
   height="495.95691"
   width="480.12469">
  <defs
     id="defs4" />
  <metadata
     id="metadata7">
    <rdf:RDF>
      <cc:Work
         rdf:about="">
        <dc:format>image/svg+xml</dc:format>
        <dc:type
           rdf:resource="http://purl.org/dc/dcmitype/StillImage" />
        <dc:title></dc:title>
      </cc:Work>
    </rdf:RDF>
  </metadata>
  <g
     transform="translate(-135.43203,-215.10005)"
     id="layer1">
    <path
       id="path4217"
       d="m 328.035,708.71168 c -6.05532,-2.81974 -16.28307,-12.05355 -20.1564,-18.19761 -2.11171,-3.34968 -3.922,-4.86291 -7.30716,-6.10808 -66.47561,-24.45178 -110.01942,-74.00118 -113.64458,-129.31848 -0.7194,-10.9775 0.27965,-15.37123 4.44316,-19.54078 3.4965,-3.50158 6.58712,-4.64224 12.49124,-4.61016 10.17612,0.0553 15.02462,6.15157 16.06062,20.19385 2.46798,33.45187 23.92286,64.46004 59.69133,86.27033 4.08882,2.49321 7.58306,4.38425 7.765,4.20232 0.18193,-0.18194 -0.15017,-2.93249 -0.73799,-6.11234 -0.58783,-3.17985 -1.06878,-11.14645 -1.06878,-17.70354 0,-18.92842 3.7324,-29.7641 14.17957,-41.16536 6.94401,-7.57816 13.31401,-11.83025 23.0567,-15.39076 l 7.26373,-2.65457 43,0 c 42.32857,0 43.1093,0.0363 50,2.32481 12.71511,4.22289 22.09604,11.29275 29.57007,22.28525 6.29702,9.26141 8.25094,16.35598 8.72028,31.66284 0.23071,7.52406 -0.0904,16.12899 -0.74133,19.86702 -0.63158,3.62676 -1.00807,6.73436 -0.83666,6.90578 0.17141,0.17141 3.65705,-1.72824 7.74587,-4.22145 35.72185,-21.78186 56.98451,-52.47159 59.62367,-86.05856 0.41251,-5.24978 1.42423,-10.22939 2.52236,-12.41492 4.4859,-8.92798 18.21342,-10.95608 25.75594,-3.80518 5.11645,4.85079 6.20036,12.18457 4.06738,27.52008 -7.33497,52.7365 -49.8271,98.55352 -112.92758,121.76382 -3.38516,1.24517 -5.19545,2.7584 -7.30716,6.10808 -3.87333,6.14406 -14.10108,15.37787 -20.1564,18.19761 -5.02266,2.33887 -5.14724,2.34528 -45.53644,2.34528 -40.3892,0 -40.51378,-0.006 -45.53644,-2.34528 z m 31.53644,-55.18484 c 0,-7.69347 5.89714,-13.43973 13.79966,-13.4466 8.18866,-0.007 14.18897,5.59152 14.1966,13.24626 l 0.004,3.75 10.84996,0 c 10.47146,0 10.99461,-0.10478 14.99636,-3.00364 7.53102,-5.45544 15.95082,-19.75824 18.34183,-31.15747 1.00092,-4.77191 0.92715,-6.24847 -0.49871,-9.98202 -2.47228,-6.47357 -7.00915,-11.37564 -13.45985,-14.54331 l -5.72959,-2.81356 -38.5,0 -38.5,0 -5.72959,2.81356 c -6.4507,3.16767 -10.98757,8.06974 -13.45985,14.54331 -1.42586,3.73355 -1.49963,5.21011 -0.49871,9.98202 2.39101,11.39923 10.81081,25.70203 18.34183,31.15747 4.00175,2.89886 4.5249,3.00364 14.99636,3.00364 l 10.84996,0 0,-3.54966 z m -15.5,-135.0932 C 272.8548,511.04853 223.59745,489.94823 183.14858,449.49936 161.7713,428.12209 141.05251,396.87139 137.12214,380.0765 c -3.52416,-15.05914 -1.381,-36.95377 4.97654,-50.84046 7.81383,-17.06766 19.22181,-21.80845 36.1472,-15.0216 13.92625,5.58423 32.59684,10.20697 53.82556,13.3269 6.05,0.88915 12.0125,1.83188 13.25,2.09495 2.04609,0.43497 2.25,0.10566 2.25,-3.63365 0,-18.4915 16.56793,-64.0359 31.39788,-86.31116 6.5851,-9.89113 16.85031,-19.95253 23.24074,-22.77932 4.2001,-1.85791 6.00719,-2.03442 15.80191,-1.54351 12.5158,0.6273 20.24118,2.56403 36.56866,9.16768 18.86179,7.62864 23.11983,7.62864 41.98162,0 16.38639,-6.62748 24.04027,-8.53987 36.7177,-9.17425 10.70056,-0.53547 11.45671,-0.43944 16.68571,2.11887 11.90819,5.82613 26.98214,26.23882 37.53103,50.82338 9.25066,21.559 16.07475,45.84096 16.07475,57.19831 0,4.25783 0.17277,4.57524 2.25,4.13365 1.2375,-0.26307 7.2,-1.2058 13.25,-2.09495 21.22872,-3.11993 39.89931,-7.74267 53.82556,-13.3269 9.4481,-3.78856 16.06151,-4.09716 22.36891,-1.0438 11.9982,5.80823 20.32006,25.82911 20.29075,48.81582 -0.024,18.83482 -3.34656,28.42857 -17.34638,50.08723 -33.95549,52.53142 -85.82529,87.09254 -150.63884,100.37146 -24.33716,4.98617 -33.56341,5.8229 -67.5,6.12162 -17.6,0.15492 -33.8,0.095 -36,-0.13313 z m 57,-96.87131 c 41.30032,-2.05639 81.64058,-14.49255 94.49278,-29.13039 7.14455,-8.1372 7.67085,-10.88029 7.24392,-37.75548 l -0.2367,-14.90004 -2.8284,3.90004 c -10.46728,14.4332 -34.00904,23.66287 -74.1716,29.07937 -10.98187,1.48106 -20.30829,1.82067 -50,1.82067 -38.59361,0 -50.96859,-0.96165 -73,-5.67279 -28.03573,-5.99509 -46.78717,-15.95701 -52.98703,-28.14998 l -2.12403,-4.17723 0.33362,22 c 0.36746,24.23164 0.73384,25.825 7.78466,33.85544 13.59139,15.47974 53.7707,27.30099 100.49278,29.5662 15.59838,0.75626 22.37712,0.6906 45,-0.43581 z"
       style="fill:#ffffff" />
  </g>
</svg>
